<svg width="20" height="20" viewBox="0 0 20 20" fill="none" xmlns="http://www.w3.org/2000/svg">
<path d="M5.2716 9.30606L11.513 2.78497C11.6881 2.60249 11.9253 2.5 12.1726 2.5C12.42 2.5 12.6572 2.60249 12.8323 2.78497L13.7162 3.70798C13.8903 3.89087 13.988 4.1383 13.988 4.3962C13.988 4.65411 13.8903 4.90154 13.7162 5.08443L9.04254 9.99832L13.7272 14.9157C13.9019 15.0983 14 15.3458 14 15.6039C14 15.862 13.9019 16.1095 13.7272 16.2921L12.8433 17.2151C12.6685 17.3975 12.4314 17.5 12.1842 17.5C11.9371 17.5 11.7 17.3975 11.5252 17.2151L5.2716 10.679C5.09766 10.4967 5 10.2499 5 9.99255C5 9.73521 5.09766 9.48836 5.2716 9.30606Z" fill="currentColor"/>
</svg>
