<svg width="18" height="18" viewBox="0 0 18 18" fill="none" xmlns="http://www.w3.org/2000/svg">
<path d="M16.6191 7.09577H10.9047V1.38133C10.9047 1.0445 10.7709 0.721475 10.5327 0.483304C10.2945 0.245132 9.97149 0.111328 9.63466 0.111328H8.36577C8.02895 0.111328 7.70592 0.245132 7.46775 0.483304C7.22958 0.721475 7.09577 1.0445 7.09577 1.38133V7.09577H1.38133C1.0445 7.09577 0.721474 7.22958 0.483303 7.46775C0.245131 7.70592 0.111328 8.02895 0.111328 8.36577L0.111328 9.63577C0.111328 9.9726 0.245131 10.2956 0.483303 10.5338C0.721474 10.772 1.0445 10.9058 1.38133 10.9058H7.09577V16.6202C7.09607 16.9569 7.23 17.2796 7.46814 17.5175C7.70628 17.7555 8.02914 17.8891 8.36577 17.8891H9.63466C9.97149 17.8891 10.2945 17.7553 10.5327 17.5171C10.7709 17.279 10.9047 16.9559 10.9047 16.6191V10.9047H16.6191C16.9559 10.9047 17.279 10.7709 17.5171 10.5327C17.7553 10.2945 17.8891 9.97149 17.8891 9.63466V8.36577C17.8891 8.02895 17.7553 7.70592 17.5171 7.46775C17.279 7.22958 16.9559 7.09577 16.6191 7.09577Z" fill="white"/>
</svg>
