<svg width="20" height="20" viewBox="0 0 20 20" fill="none" xmlns="http://www.w3.org/2000/svg">
<path d="M14.7284 10.6939L8.48697 17.215C8.31192 17.3975 8.07469 17.5 7.82736 17.5C7.58002 17.5 7.34279 17.3975 7.16775 17.215L6.28385 16.292C6.10971 16.1091 6.01196 15.8617 6.01196 15.6038C6.01196 15.3459 6.10971 15.0985 6.28385 14.9156L10.9575 10.0017L6.2728 5.08433C6.09812 4.90174 6 4.6542 6 4.3961C6 4.13801 6.09812 3.89047 6.2728 3.70788L7.1567 2.78487C7.33155 2.60246 7.5686 2.5 7.81575 2.5C8.06291 2.5 8.29996 2.60246 8.47481 2.78487L14.7284 9.32096C14.9023 9.50326 15 9.75011 15 10.0075C15 10.2648 14.9023 10.5116 14.7284 10.6939Z" fill="currentColor"/>
</svg>
