<svg width="100" height="100" viewBox="0 0 100 100" fill="none" xmlns="http://www.w3.org/2000/svg">
<g opacity="0.75">
<path d="M78.7227 26.1107C78.7227 19.5963 72.6919 14.3125 65.2559 14.3125C57.8198 14.3125 51.7891 19.5963 51.7891 26.1107C51.7891 26.1107 54.0135 29.3839 59.6347 28.5797C65.2559 27.7754 72.4832 34.2093 72.4832 34.2093L78.7227 26.1107Z" fill="#B6DFDB"/>
<path d="M97.5393 38.6091C97.5408 40.6836 97.1 42.7346 96.2465 44.6248V44.7132C95.1 47.2011 93.2769 49.3151 90.9859 50.8129C88.695 52.3107 86.029 53.1318 83.2936 53.1819H15.55C11.9293 53.1819 8.45702 51.7414 5.89686 49.1774C3.33671 46.6134 1.89844 43.1359 1.89844 39.5098C1.89844 35.8838 3.33671 32.4063 5.89686 29.8423C8.45702 27.2783 11.9293 25.8378 15.55 25.8378H16.1201C19.3968 25.9772 22.5139 27.2933 24.9012 29.5454C27.2885 31.7975 28.7865 34.835 29.1212 38.1024L36.7259 23.0391L49.5743 23.2401L51.8549 24.6154L57.3718 27.9288L68.8712 34.8533C69.5988 32.5286 70.8561 30.4052 72.5438 28.6508C74.2315 26.8963 76.3034 25.5589 78.5959 24.7441C79.9953 24.2697 81.4628 24.0279 82.9402 24.0283C86.793 24.0679 90.4774 25.6155 93.2056 28.3403C95.9337 31.0651 97.4892 34.7507 97.5393 38.6091Z" fill="#56B4AC"/>
<path d="M60.0391 51.9049C67.3568 51.9049 73.2891 46.6839 73.2891 40.2435C73.2891 33.803 67.3568 28.582 60.0391 28.582C52.7213 28.582 46.7891 33.803 46.7891 40.2435C46.7891 46.6839 52.7213 51.9049 60.0391 51.9049Z" fill="#86C9C3"/>
<path d="M37.0305 42.2856C48.7877 42.2856 58.3189 33.2263 58.3189 22.051C58.3189 10.8757 48.7877 1.81641 37.0305 1.81641C25.2733 1.81641 15.7422 10.8757 15.7422 22.051C15.7422 33.2263 25.2733 42.2856 37.0305 42.2856Z" fill="#56B4AC"/>
<path d="M15.8733 53.1913C23.6346 53.1913 29.9264 46.89 29.9264 39.1171C29.9264 31.3442 23.6346 25.043 15.8733 25.043C8.11207 25.043 1.82031 31.3442 1.82031 39.1171C1.82031 46.89 8.11207 53.1913 15.8733 53.1913Z" fill="#259F94"/>
<path d="M58.1314 22.4453C58.1314 22.4453 58.3322 26.6113 56.7422 29.5869C56.7422 29.5869 65.2623 27.7774 70.0805 32.6028C71.0056 30.3899 72.4821 28.4515 74.3687 26.9732C74.3687 26.9732 62.4919 30.1901 58.1314 22.4453Z" fill="#007A6E"/>
<path d="M82.8439 53.1929C90.96 53.1929 97.5393 46.6036 97.5393 38.4753C97.5393 30.3471 90.96 23.7578 82.8439 23.7578C74.7278 23.7578 68.1484 30.3471 68.1484 38.4753C68.1484 46.6036 74.7278 53.1929 82.8439 53.1929Z" fill="#86C9C3"/>
<path d="M29.1209 43.0561C37.2395 53.9616 46.4423 42.477 38.5164 39.5014C31.0161 36.6865 56.183 40.8927 56.183 40.8927C56.183 40.8927 61.1377 48.6214 68.8629 42.8711C68.8629 42.8711 72.2276 50.0127 83.5182 50.0127C89.9424 50.0127 93.8451 48.4043 96.2462 44.7128C95.0998 47.2007 93.2766 49.3147 90.9857 50.8125C88.6948 52.3103 86.0288 53.1313 83.2933 53.1814H15.5497C13.395 53.183 11.2705 52.6737 9.34997 51.6952C7.42946 50.7168 5.76749 49.2969 4.5 47.5518C7.36682 49.6026 13.6706 53.4951 21.2914 50.3988C27.5149 47.8815 29.1209 43.0561 29.1209 43.0561Z" fill="#007A6E"/>
<path d="M64.9166 39.4533H58.4924C58.034 39.4533 57.5902 39.6142 57.238 39.9081C56.8859 40.202 56.6478 40.6102 56.5651 41.0618C55.8825 44.898 55.1518 61.1114 39.308 53.1816C41.8536 52.7232 43.7568 52.3774 44.8569 48.2999C45.3876 46.0815 45.697 43.8159 45.7804 41.5363C45.7914 41.3055 45.7643 41.0746 45.7001 40.8527C45.5805 40.4464 45.3329 40.0898 44.9942 39.8361C44.6555 39.5824 44.244 39.4453 43.821 39.4453H37.6698C37.3247 39.4468 36.9915 39.3188 36.7359 39.0866C36.4803 38.8544 36.3207 38.5348 36.2886 38.1906C36.2673 37.9873 36.2924 37.7817 36.3619 37.5895C36.4315 37.3972 36.5437 37.2233 36.6901 37.0808L50.3416 23.4088C50.602 23.1495 50.9542 23.0039 51.3213 23.0039C51.6885 23.0039 52.0407 23.1495 52.301 23.4088L65.9525 37.0808C66.1495 37.2787 66.2824 37.5314 66.3339 37.806C66.3854 38.0806 66.3532 38.3644 66.2414 38.6204C66.1296 38.8764 65.9435 39.0927 65.7072 39.2413C65.4709 39.3899 65.1954 39.4637 64.9166 39.4533Z" fill="white"/>
<path d="M64.9133 39.4559H58.4891C58.0307 39.4559 57.5868 39.6169 57.2347 39.9108C56.8826 40.2047 56.6445 40.6129 56.5618 41.0644C55.8792 44.9006 55.1485 61.114 39.3047 53.1843C41.8503 52.7258 43.7535 52.38 44.8536 48.3025C45.3756 48.5036 53.687 51.5195 55.7668 41.6113C57.2765 34.3732 67.9488 42.5442 63.5241 34.7109L65.9332 37.0834C66.129 37.2804 66.2614 37.5316 66.3133 37.8046C66.3653 38.0776 66.3344 38.3599 66.2247 38.6152C66.1149 38.8705 65.9314 39.087 65.6976 39.2369C65.4639 39.3867 65.1908 39.463 64.9133 39.4559Z" fill="#DADADA"/>
<path d="M45.7084 40.6445C45.7164 40.7194 45.7164 40.7949 45.7084 40.8697C45.5888 40.4634 45.3412 40.1068 45.0025 39.8531C44.6638 39.5995 44.2522 39.4624 43.8293 39.4623H37.6781C37.333 39.4638 36.9998 39.3358 36.7442 39.1036C36.4885 38.8714 36.329 38.5518 36.2969 38.2077C37.3526 38.4345 38.44 38.4726 39.509 38.3203C42.681 38.1112 45.5719 37.5965 45.7084 40.6445Z" fill="#DADADA"/>
</g>
<path d="M70.2994 85.2064L35.9377 96.5863C35.6364 96.6854 35.308 96.6605 35.0249 96.5173C34.7419 96.374 34.5272 96.124 34.428 95.8223L33.9301 94.3103L33.2636 92.3078L22.6154 60.0418C22.5159 59.7399 22.5394 59.411 22.6807 59.1263C22.8221 58.8417 23.0699 58.6244 23.3703 58.5218L57.732 47.1499C58.0344 47.0506 58.3638 47.0752 58.6482 47.2184C58.9326 47.3615 59.1488 47.6116 59.2497 47.9139L63.321 60.2509L63.7868 61.6664L71.0623 83.6944C71.1123 83.8438 71.1323 84.0017 71.121 84.1589C71.1097 84.316 71.0673 84.4694 70.9963 84.6101C70.9254 84.7507 70.8272 84.8758 70.7076 84.9782C70.5879 85.0806 70.4492 85.1581 70.2994 85.2064Z" fill="#F5F5F5"/>
<path d="M70.2989 85.2041L35.9373 96.584C35.6359 96.6831 35.3076 96.6582 35.0245 96.515C34.7414 96.3717 34.5267 96.1217 34.4276 95.82L33.9297 94.308C35.5577 94.593 37.2334 94.3916 38.7479 93.729C42.6667 92.1607 64.9026 83.7082 63.7783 61.6641L71.0538 83.6921C71.104 83.841 71.1243 83.9984 71.1136 84.1552C71.1028 84.3119 71.0611 84.465 70.9909 84.6056C70.9207 84.7462 70.8234 84.8714 70.7047 84.9741C70.5859 85.0769 70.448 85.155 70.2989 85.2041Z" fill="#E5E5E5"/>
<path d="M57.0464 52.0599L64.5628 74.8198C64.6067 74.9508 64.6243 75.0891 64.6145 75.2269C64.6047 75.3646 64.5677 75.4991 64.5058 75.6225C64.4438 75.7459 64.358 75.8557 64.2534 75.9457C64.1488 76.0357 64.0274 76.1041 63.8963 76.1468L35.7019 85.484C35.4841 85.5581 35.2479 85.5581 35.03 85.4839C34.8122 85.4098 34.6249 85.2656 34.4974 85.0738C34.4461 84.9937 34.4056 84.9072 34.3769 84.8165L26.8605 62.0566C26.7788 61.7963 26.802 61.5144 26.925 61.271C27.0481 61.0275 27.2612 60.8419 27.519 60.7537L55.7134 51.4166C55.9754 51.3264 56.2624 51.3434 56.512 51.4638C56.7616 51.5843 56.9536 51.7985 57.0464 52.0599Z" fill="#D5E6F9"/>
<path d="M60.2243 61.6814L64.5606 74.8226C64.6046 74.9535 64.6221 75.0919 64.6123 75.2296C64.6025 75.3674 64.5656 75.5019 64.5036 75.6252C64.4416 75.7486 64.3559 75.8585 64.2513 75.9485C64.1466 76.0385 64.0253 76.1068 63.8941 76.1496L35.6997 85.4868C35.4819 85.5609 35.2457 85.5609 35.0279 85.4867C34.81 85.4125 34.6228 85.2683 34.4952 85.0766C34.444 84.9965 34.4035 84.91 34.3747 84.8193L32.6562 79.6158L35.9166 73.5599C36.1552 73.1153 36.5352 72.7631 36.9963 72.5592C37.4574 72.3552 37.9733 72.3112 38.4622 72.434C40.0885 72.8476 41.8074 72.69 43.3317 71.9874C44.856 71.2848 46.0936 70.0799 46.8378 68.5737L50.5156 61.1988C50.8222 60.5778 51.263 60.033 51.8061 59.604C52.3492 59.1749 52.9808 58.8724 53.6552 58.7183C54.3296 58.5643 55.0298 58.5626 55.7049 58.7135C56.38 58.8643 57.0131 59.1638 57.5582 59.5903L58.1525 60.0568L60.2243 61.6814Z" fill="#A9C5EC"/>
<path d="M63.8893 76.1502L62.8856 76.4799L60.8699 75.8043L57.3366 74.6301L52.9762 74.8795L46.7848 77.7023L44.2472 78.5066L41.3563 78.2733L39.0115 78.7237L36.6827 80.863L34.0969 83.9995L32.8281 80.1472C33.7275 78.4181 36.2169 73.8018 37.3331 73.4318C38.6983 72.9815 41.5571 76.0536 44.8495 73.2227C48.1419 70.3918 50.4707 61.2798 53.6828 59.3255C54.7428 58.6982 56.2525 58.5856 58.1316 60.0574L60.2034 61.6659L62.9819 70.0862L64.5398 74.8071C64.5865 74.938 64.6067 75.0768 64.5992 75.2156C64.5917 75.3544 64.5567 75.4903 64.4961 75.6154C64.4355 75.7404 64.3507 75.8521 64.2465 75.9439C64.1423 76.0358 64.0209 76.1059 63.8893 76.1502Z" fill="#83ACE5"/>
<path d="M63.8944 76.1494L62.8906 76.4792L60.875 75.8036C61.8025 73.9919 62.5166 72.0784 63.003 70.1016L64.5609 74.8224C64.6048 74.9534 64.6224 75.0917 64.6126 75.2295C64.6028 75.3672 64.5659 75.5017 64.5039 75.6251C64.4419 75.7485 64.3561 75.8583 64.2515 75.9483C64.1469 76.0383 64.0255 76.1067 63.8944 76.1494Z" fill="#6F9EE0"/>
<path d="M34.7805 68.3633C36.5146 68.3633 37.9203 66.9555 37.9203 65.2188C37.9203 63.4821 36.5146 62.0742 34.7805 62.0742C33.0464 62.0742 31.6406 63.4821 31.6406 65.2188C31.6406 66.9555 33.0464 68.3633 34.7805 68.3633Z" fill="white"/>
<path d="M63.8899 76.1488L59.955 77.4517L52.6394 79.8644L53.9885 76.9369C53.9988 76.9054 54.0069 76.8731 54.0126 76.8404C54.0416 76.7495 54.0552 76.6544 54.0528 76.559C54.051 76.3955 54.0091 76.2349 53.9309 76.0914C53.8526 75.948 53.7403 75.826 53.6038 75.7362C53.4674 75.6464 53.311 75.5916 53.1484 75.5766C52.9858 75.5616 52.8221 75.5869 52.6715 75.6502L46.8255 78.1353L46.5605 78.2398C44.6352 78.9911 42.5419 79.2024 40.5056 78.851C40.1477 78.7951 39.7815 78.8255 39.4376 78.9395C39.0885 79.0519 38.7735 79.2511 38.5222 79.5185L34.1135 84.1751L33.9609 83.7247L38.1528 79.0682C38.4655 78.7522 38.8426 78.5075 39.2584 78.3507C39.6741 78.1939 40.1187 78.1287 40.5618 78.1594L42.1117 78.2639C43.5862 78.3665 45.0624 78.0897 46.3999 77.4597L54.655 73.4948C57.7387 72.0311 59.4732 72.4252 61.9787 73.342C62.6773 73.5833 63.4322 73.8728 64.3075 74.1462L64.5403 74.8459C64.6224 75.1052 64.6004 75.3862 64.4789 75.6295C64.3575 75.8727 64.1462 76.059 63.8899 76.1488Z" fill="white"/>
<path d="M63.888 76.1441L59.9531 77.447C60.7524 76.123 61.4349 74.7318 61.9928 73.2891C62.6915 73.5303 63.4463 73.8199 64.3216 74.0933L64.5545 74.793C64.6021 74.9254 64.6226 75.066 64.6147 75.2065C64.6068 75.347 64.5706 75.4845 64.5084 75.6106C64.4461 75.7368 64.3591 75.8491 64.2525 75.9407C64.1459 76.0324 64.0219 76.1016 63.888 76.1441Z" fill="#F7F7F7"/>
<path d="M54.0147 76.8394C54.0546 77.8128 53.8415 78.7799 53.3964 79.6461L35.6655 85.5171C35.4476 85.5912 35.2115 85.5912 34.9936 85.517C34.7758 85.4428 34.5885 85.2987 34.4609 85.1069C37.0405 83.5035 39.8936 82.3911 42.8767 81.8256C48.5381 80.6032 53.1153 74.7484 53.9184 76.5418C53.9601 76.6376 53.9923 76.7373 54.0147 76.8394Z" fill="#83ACE5"/>
<path d="M97.3191 40.5297L96.0744 40.1759L75.1956 34.2808C75.0474 34.2378 74.8923 34.2245 74.739 34.2416C74.5856 34.2588 74.4372 34.3061 74.3022 34.3808C74.1672 34.4555 74.0482 34.5562 73.9521 34.677C73.856 34.7979 73.7846 34.9365 73.7421 35.085L59.4161 86.0093L58.1714 90.4407C58.1284 90.589 58.1151 90.7445 58.1323 90.898C58.1494 91.0515 58.1966 91.2002 58.2712 91.3354C58.3458 91.4706 58.4463 91.5898 58.567 91.686C58.6877 91.7823 58.8261 91.8538 58.9744 91.8963L81.0738 98.1452C81.373 98.2299 81.6935 98.1929 81.9656 98.0423C82.2377 97.8918 82.4396 97.6397 82.5273 97.341L98.1221 41.9934C98.1663 41.8445 98.1805 41.6883 98.164 41.5339C98.1474 41.3794 98.1005 41.2298 98.0258 41.0937C97.9511 40.9575 97.8502 40.8376 97.7289 40.7408C97.6075 40.644 97.4683 40.5722 97.3191 40.5297ZM73.4771 38.8086L73.8465 37.4977C73.8961 37.3849 73.987 37.2953 74.1005 37.2474C74.214 37.1996 74.3415 37.1971 74.4568 37.2404L75.9103 37.6586C75.971 37.6674 76.0293 37.6882 76.082 37.7197C76.1347 37.7512 76.1806 37.7928 76.2171 37.8421C76.2537 37.8914 76.2802 37.9475 76.295 38.0071C76.3099 38.0667 76.3129 38.1286 76.3038 38.1894L75.9344 39.5003C75.9115 39.5575 75.8774 39.6097 75.8342 39.6537C75.7911 39.6976 75.7396 39.7326 75.6829 39.7565C75.6261 39.7804 75.5652 39.7929 75.5036 39.7931C75.442 39.7933 75.381 39.7812 75.3241 39.7577L73.8706 39.3475C73.7474 39.3277 73.6369 39.26 73.5633 39.1591C73.4896 39.0582 73.4586 38.9323 73.4771 38.8086ZM72.3689 42.7253L72.7383 41.4144C72.7895 41.301 72.8823 41.2118 72.9975 41.1653C73.1127 41.1189 73.2414 41.1188 73.3567 41.1651L74.8101 41.5752C74.9334 41.595 75.0438 41.6627 75.1175 41.7636C75.1912 41.8645 75.2221 41.9905 75.2036 42.1141L74.8342 43.4169C74.7862 43.5331 74.6942 43.6255 74.5782 43.6738C74.4623 43.722 74.332 43.7222 74.2159 43.6743L72.7624 43.2641C72.641 43.2406 72.533 43.172 72.4601 43.0721C72.3871 42.9721 72.3545 42.8482 72.3689 42.7253ZM71.2688 46.6419L71.6382 45.331C71.6893 45.2177 71.7821 45.1285 71.8974 45.082C72.0126 45.0356 72.1412 45.0354 72.2565 45.0817L73.702 45.4919C73.8252 45.5117 73.9356 45.5794 74.0093 45.6803C74.083 45.7812 74.1139 45.9071 74.0954 46.0307L73.7261 47.3416C73.7024 47.3981 73.6678 47.4494 73.6243 47.4926C73.5808 47.5357 73.5292 47.5698 73.4725 47.593C73.4158 47.6161 73.3551 47.6279 73.2939 47.6275C73.2327 47.6272 73.1722 47.6147 73.1157 47.5909L71.6623 47.1808C71.539 47.1609 71.4286 47.0933 71.3549 46.9924C71.2812 46.8915 71.2503 46.7655 71.2688 46.6419ZM70.1686 50.5586L70.53 49.2476C70.5811 49.1343 70.674 49.0451 70.7892 48.9986C70.9044 48.9522 71.033 48.9521 71.1483 48.9983L72.6018 49.4085C72.725 49.4283 72.8355 49.496 72.9092 49.5969C72.9828 49.6978 73.0138 49.8237 72.9953 49.9473L72.6259 51.2582C72.5748 51.3716 72.4819 51.4608 72.3667 51.5073C72.2515 51.5537 72.1229 51.5538 72.0076 51.5076L70.5541 51.1054C70.4307 51.0838 70.3209 51.0141 70.2487 50.9117C70.1764 50.8092 70.1476 50.6822 70.1686 50.5586ZM69.0605 54.4752L69.4298 53.1643C69.481 53.0509 69.5738 52.9617 69.689 52.9153C69.8042 52.8688 69.9329 52.8687 70.0482 52.915L71.5017 53.3251C71.6234 53.3468 71.7319 53.4153 71.8039 53.516C71.8759 53.6166 71.9058 53.7415 71.8871 53.864L71.5177 55.1749C71.494 55.2314 71.4594 55.2827 71.4159 55.3258C71.3724 55.369 71.3209 55.4031 71.2642 55.4262C71.2075 55.4494 71.1468 55.4611 71.0856 55.4608C71.0244 55.4604 70.9638 55.448 70.9074 55.4242L69.4539 55.014C69.3307 54.9942 69.2203 54.9265 69.1466 54.8256C69.0729 54.7247 69.042 54.5988 69.0605 54.4752ZM67.9603 58.3918L68.3297 57.0809C68.3534 57.0244 68.388 56.9731 68.4315 56.93C68.475 56.8868 68.5266 56.8527 68.5832 56.8296C68.6399 56.8064 68.7006 56.7946 68.7618 56.795C68.823 56.7954 68.8836 56.8078 68.94 56.8316L70.3935 57.2418C70.5167 57.2616 70.6272 57.3293 70.7008 57.4302C70.7745 57.531 70.8055 57.657 70.787 57.7806L70.4176 59.0915C70.3665 59.2049 70.2736 59.2941 70.1584 59.3405C70.0432 59.387 69.9145 59.3871 69.7992 59.3408L68.3458 58.9307C68.224 58.909 68.1155 58.8405 68.0435 58.7398C67.9715 58.6391 67.9416 58.5142 67.9603 58.3918ZM66.8601 62.3165L67.2295 61.0056C67.2775 60.8894 67.3696 60.797 67.4855 60.7488C67.6015 60.7005 67.7318 60.7003 67.8479 60.7482L69.3014 61.1584C69.4231 61.1801 69.5316 61.2486 69.6036 61.3492C69.6756 61.4499 69.7055 61.5748 69.6868 61.6972L69.3174 63.0081C69.2694 63.1223 69.1787 63.2132 69.0646 63.2613C68.9506 63.3094 68.8223 63.3109 68.7071 63.2655L67.2536 62.8473C67.1929 62.8384 67.1346 62.8177 67.0819 62.7862C67.0293 62.7547 66.9834 62.7131 66.9468 62.6638C66.9102 62.6144 66.8838 62.5584 66.8689 62.4988C66.854 62.4392 66.851 62.3772 66.8601 62.3165ZM65.76 66.2331L66.1294 64.9222C66.1774 64.808 66.2681 64.7171 66.3822 64.669C66.4962 64.6209 66.6246 64.6194 66.7397 64.6649L68.1932 65.075C68.3164 65.0948 68.4269 65.1625 68.5005 65.2634C68.5742 65.3643 68.6052 65.4903 68.5867 65.6139L68.2173 66.9248C68.1661 67.0383 68.0737 67.128 67.9589 67.1758C67.844 67.2236 67.7154 67.2258 67.5989 67.1821L66.1455 66.772C66.0222 66.7522 65.9118 66.6844 65.8381 66.5836C65.7644 66.4827 65.7335 66.3567 65.752 66.2331H65.76ZM64.6518 70.1498L65.0212 68.8388C65.0724 68.7254 65.1648 68.6356 65.2796 68.5878C65.3944 68.54 65.5231 68.5378 65.6395 68.5815L67.093 68.9916C67.2144 69.0152 67.3224 69.0838 67.3954 69.1837C67.4684 69.2836 67.5009 69.4075 67.4865 69.5305L67.1171 70.8414C67.0675 70.9562 66.9752 71.0472 66.8599 71.0952C66.7445 71.1432 66.6151 71.1445 66.4988 71.0987L65.0453 70.6886C64.9836 70.6797 64.9242 70.6588 64.8705 70.6269C64.8169 70.5949 64.7701 70.5527 64.7328 70.5027C64.6955 70.4526 64.6684 70.3957 64.6532 70.3351C64.6379 70.2745 64.6347 70.2116 64.6438 70.1498H64.6518ZM63.5517 74.0664L63.9211 72.7555C63.9707 72.6426 64.0616 72.553 64.1751 72.5052C64.2886 72.4573 64.4161 72.4548 64.5314 72.4981L65.9848 72.9083C66.1081 72.9281 66.2185 72.9958 66.2922 73.0967C66.3659 73.1976 66.3968 73.3235 66.3783 73.4471L66.0089 74.758C65.961 74.8742 65.8689 74.9666 65.7529 75.0149C65.637 75.0631 65.5067 75.0633 65.3906 75.0154L63.9451 74.6052C63.8834 74.5964 63.824 74.5754 63.7704 74.5435C63.7168 74.5116 63.67 74.4694 63.6326 74.4193C63.5953 74.3693 63.5683 74.3123 63.553 74.2518C63.5377 74.1912 63.5345 74.1282 63.5436 74.0664H63.5517ZM62.4435 77.983L62.8129 76.6721C62.864 76.5588 62.9568 76.4696 63.0721 76.4231C63.1873 76.3767 63.3159 76.3765 63.4312 76.4228L64.8847 76.833C65.007 76.8547 65.1162 76.9228 65.1895 77.0232C65.2628 77.1236 65.2946 77.2485 65.2782 77.3718L64.9088 78.6827C64.8577 78.7961 64.7648 78.8853 64.6496 78.9317C64.5344 78.9782 64.4057 78.9783 64.2905 78.932L62.837 78.5219C62.7132 78.502 62.6021 78.4346 62.5271 78.334C62.4521 78.2334 62.4193 78.1075 62.4355 77.983H62.4435ZM61.3433 81.8997L61.7127 80.5888C61.7364 80.5322 61.771 80.4809 61.8145 80.4378C61.858 80.3947 61.9096 80.3605 61.9663 80.3374C62.0229 80.3142 62.0836 80.3025 62.1449 80.3028C62.2061 80.3032 62.2666 80.3156 62.323 80.3394L63.7765 80.7496C63.8997 80.7694 64.0102 80.8371 64.0839 80.938C64.1576 81.0389 64.1885 81.1648 64.17 81.2884L63.8006 82.5993C63.7511 82.7121 63.6597 82.8012 63.5458 82.8477C63.4319 82.8942 63.3044 82.8946 63.1903 82.8487L61.7368 82.4385C61.6751 82.4296 61.6157 82.4086 61.5621 82.3767C61.5084 82.3448 61.4616 82.3027 61.4243 82.2526C61.387 82.2025 61.3599 82.1456 61.3447 82.085C61.3294 82.0244 61.3262 81.9615 61.3353 81.8997H61.3433ZM61.9617 89.1378L61.5923 90.4487C61.5686 90.5052 61.534 90.5565 61.4905 90.5996C61.447 90.6428 61.3954 90.6769 61.3387 90.7001C61.282 90.7232 61.2214 90.735 61.1601 90.7346C61.0989 90.7343 61.0384 90.7218 60.982 90.698L59.5285 90.2878C59.4052 90.268 59.2948 90.2003 59.2211 90.0995C59.1475 89.9986 59.1165 89.8726 59.135 89.749L59.5044 88.4381C59.5281 88.3816 59.5627 88.3303 59.6062 88.2871C59.6497 88.244 59.7013 88.2099 59.7579 88.1867C59.8146 88.1636 59.8753 88.1519 59.9365 88.1522C59.9977 88.1526 60.0583 88.165 60.1147 88.1888L61.5682 88.5989C61.6868 88.6206 61.7927 88.6868 61.8643 88.7839C61.9359 88.881 61.9679 89.0018 61.9536 89.1217L61.9617 89.1378ZM62.7005 86.5321C62.6493 86.6454 62.5565 86.7346 62.4413 86.7811C62.3261 86.8275 62.1974 86.8276 62.0821 86.7814L60.6286 86.3712C60.4941 86.3361 60.3788 86.2494 60.3074 86.1299C60.2728 86.0895 60.2482 86.0416 60.2357 85.9898C60.2231 85.9381 60.2229 85.8842 60.2351 85.8324L60.6045 84.5215C60.6557 84.4081 60.7485 84.3189 60.8637 84.2724C60.9789 84.226 61.1076 84.2259 61.2229 84.2721L62.6764 84.6823C62.7986 84.704 62.9078 84.7722 62.9812 84.8726C63.0545 84.973 63.0862 85.0979 63.0698 85.2212L62.8129 86.1219L62.7005 86.5321ZM82.4711 94.9283L82.1177 96.2231C82.0697 96.3393 81.9777 96.4317 81.8617 96.4799C81.7458 96.5282 81.6155 96.5284 81.4994 96.4805L80.0459 96.0703C79.9236 96.0486 79.8144 95.9804 79.7411 95.88C79.6678 95.7796 79.636 95.6548 79.6524 95.5315L80.0218 94.2206C80.073 94.1071 80.1654 94.0173 80.2802 93.9695C80.395 93.9218 80.5237 93.9195 80.6402 93.9632L82.0936 94.3814C82.2108 94.4067 82.3141 94.4755 82.3827 94.574C82.4512 94.6725 82.4799 94.7933 82.463 94.9122L82.4711 94.9283ZM83.5712 91.0117L83.2018 92.3226C83.1522 92.4374 83.0599 92.5284 82.9446 92.5764C82.8292 92.6244 82.6998 92.6257 82.5835 92.5799L81.138 92.1698C81.0148 92.15 80.9043 92.0823 80.8307 91.9814C80.757 91.8805 80.726 91.7546 80.7445 91.6309L81.1139 90.32C81.1636 90.2071 81.2544 90.1176 81.3679 90.0697C81.4814 90.0218 81.6089 90.0193 81.7242 90.0627L83.1777 90.4728C83.2963 90.4945 83.4022 90.5606 83.4738 90.6577C83.5454 90.7549 83.5774 90.8757 83.5632 90.9956L83.5712 91.0117ZM84.6794 87.095L84.31 88.4059C84.2588 88.5194 84.1664 88.6092 84.0516 88.6569C83.9368 88.7047 83.8081 88.707 83.6917 88.6633L82.2382 88.2531C82.1149 88.2333 82.0045 88.1656 81.9308 88.0647C81.8571 87.9638 81.8262 87.8379 81.8447 87.7143L82.2141 86.4034C82.2637 86.2886 82.356 86.1976 82.4713 86.1495C82.5867 86.1015 82.7161 86.1003 82.8324 86.146L84.2859 86.5562C84.4028 86.5812 84.5065 86.6482 84.5774 86.7445C84.6484 86.8408 84.6818 86.9597 84.6714 87.079L84.6794 87.095ZM85.7795 83.1784L85.4102 84.4893C85.3589 84.6028 85.2666 84.6925 85.1517 84.7403C85.0369 84.7881 84.9082 84.7904 84.7918 84.7466L83.3383 84.3365C83.2166 84.3148 83.1081 84.2463 83.0361 84.1456C82.9641 84.045 82.9342 83.9201 82.9529 83.7976L83.3223 82.4867C83.3452 82.4295 83.3792 82.3774 83.4224 82.3334C83.4656 82.2894 83.517 82.2545 83.5738 82.2305C83.6306 82.2066 83.6915 82.1942 83.7531 82.194C83.8147 82.1938 83.8757 82.2058 83.9326 82.2294L85.3861 82.6395C85.5047 82.6612 85.6105 82.7274 85.6822 82.8245C85.7538 82.9216 85.7857 83.0424 85.7715 83.1623L85.7795 83.1784ZM86.8797 79.2618L86.5183 80.5727C86.4672 80.686 86.3744 80.7752 86.2592 80.8217C86.1439 80.8681 86.0153 80.8683 85.9 80.822L84.4465 80.4118C84.385 80.403 84.3259 80.382 84.2727 80.35C84.2194 80.318 84.1731 80.2756 84.1364 80.2254C84.0998 80.1752 84.0735 80.1182 84.0592 80.0576C84.0449 79.9971 84.0428 79.9343 84.053 79.873L84.4224 78.5621C84.4735 78.4487 84.5664 78.3595 84.6816 78.313C84.7968 78.2666 84.9255 78.2665 85.0408 78.3127L86.4942 78.7229C86.6129 78.7464 86.7181 78.8145 86.7883 78.9132C86.8585 79.0119 86.8883 79.1337 86.8717 79.2537L86.8797 79.2618ZM87.9879 75.3451L87.6185 76.656C87.5674 76.7694 87.4745 76.8586 87.3593 76.9051C87.2441 76.9515 87.1154 76.9516 87.0001 76.9053L85.5467 76.4952C85.4249 76.4735 85.3164 76.405 85.2444 76.3043C85.1724 76.2037 85.1425 76.0788 85.1612 75.9563L85.5306 74.6454C85.5543 74.5889 85.5889 74.5376 85.6324 74.4945C85.6759 74.4514 85.7275 74.4172 85.7841 74.3941C85.8408 74.3709 85.9015 74.3592 85.9627 74.3595C86.0239 74.3599 86.0845 74.3723 86.1409 74.3961L87.5944 74.8063C87.713 74.828 87.8189 74.8941 87.8905 74.9912C87.9621 75.0883 87.9941 75.2091 87.9798 75.329L87.9879 75.3451ZM89.088 71.4285L88.7186 72.7394C88.6949 72.7959 88.6603 72.8472 88.6168 72.8904C88.5733 72.9335 88.5218 72.9676 88.4651 72.9908C88.4084 73.0139 88.3477 73.0257 88.2865 73.0253C88.2253 73.0249 88.1647 73.0125 88.1083 72.9887L86.6548 72.5786C86.5316 72.5588 86.4212 72.491 86.3475 72.3901C86.2738 72.2892 86.2429 72.1633 86.2614 72.0397L86.6307 70.7288C86.6819 70.6154 86.7747 70.5262 86.8899 70.4798C87.0051 70.4333 87.1338 70.4332 87.2491 70.4795L88.7026 70.8897C88.8197 70.9131 88.9236 70.98 88.9936 71.0769C89.0636 71.1739 89.0945 71.2937 89.08 71.4124L89.088 71.4285ZM90.1962 67.5119L89.8268 68.8228C89.7757 68.9361 89.6828 69.0253 89.5676 69.0718C89.4524 69.1182 89.3238 69.1183 89.2085 69.0721L87.755 68.6619C87.6336 68.6384 87.5256 68.5698 87.4526 68.4699C87.3796 68.3699 87.3471 68.2461 87.3615 68.1231L87.7309 66.8122C87.782 66.6988 87.8749 66.6096 87.9901 66.5632C88.1053 66.5167 88.2339 66.5166 88.3492 66.5629L89.8027 66.973C89.9213 66.9947 90.0272 67.0608 90.0988 67.1579C90.1704 67.2551 90.2024 67.3759 90.1882 67.4958L90.1962 67.5119ZM91.2964 63.5872L90.927 64.8981C90.904 64.9553 90.87 65.0075 90.8268 65.0514C90.7836 65.0954 90.7322 65.1304 90.6754 65.1543C90.6187 65.1783 90.5577 65.1907 90.4962 65.1909C90.4346 65.1911 90.3736 65.179 90.3167 65.1554L88.8632 64.7453C88.7399 64.7255 88.6295 64.6578 88.5558 64.5569C88.4821 64.456 88.4512 64.3301 88.4697 64.2065L88.8391 62.8955C88.8902 62.7822 88.9831 62.693 89.0983 62.6465C89.2135 62.6001 89.3421 62.6 89.4574 62.6462L90.9109 63.0564C91.0274 63.078 91.1312 63.1433 91.2014 63.2389C91.2715 63.3346 91.3026 63.4533 91.2883 63.5711L91.2964 63.5872ZM92.4045 59.6705L92.0352 60.9815C91.9872 61.0977 91.8951 61.19 91.7792 61.2383C91.6632 61.2865 91.5329 61.2867 91.4168 61.2388L89.9633 60.8287C89.842 60.8051 89.7339 60.7365 89.661 60.6366C89.588 60.5367 89.5554 60.4128 89.5698 60.2898L89.9392 58.9789C89.9904 58.8656 90.0832 58.7764 90.1984 58.7299C90.3136 58.6834 90.4423 58.6833 90.5576 58.7296L92.0111 59.1397C92.129 59.1596 92.2348 59.2241 92.3066 59.3199C92.3783 59.4157 92.4105 59.5355 92.3965 59.6545L92.4045 59.6705ZM93.5047 55.7539L93.1353 57.0648C93.1124 57.1221 93.0783 57.1742 93.0352 57.2182C92.992 57.2622 92.9405 57.2971 92.8838 57.3211C92.827 57.345 92.7661 57.3574 92.7045 57.3576C92.6429 57.3578 92.5819 57.3458 92.525 57.3222L91.0715 56.912C90.9875 56.8903 90.9093 56.8502 90.8427 56.7946C90.776 56.7389 90.7225 56.6692 90.6861 56.5903C90.6622 56.5199 90.6622 56.4436 90.6861 56.3732L91.0555 55.0623C91.0823 54.99 91.1289 54.9268 91.19 54.8798C91.2511 54.8329 91.3241 54.8041 91.4007 54.7969C91.4907 54.777 91.5838 54.777 91.6738 54.7969L93.1192 55.207C93.2379 55.2305 93.3431 55.2986 93.4133 55.3973C93.4835 55.496 93.5133 55.6178 93.4967 55.7378L93.5047 55.7539ZM94.6129 51.8373L94.2435 53.1482C94.1923 53.2617 94.0999 53.3514 93.9851 53.3992C93.8703 53.447 93.7416 53.4492 93.6251 53.4055L92.1717 52.9954L92.0833 52.9552C91.9815 52.922 91.8949 52.8536 91.839 52.7622C91.783 52.6708 91.7615 52.5624 91.7782 52.4565L92.1476 51.1456C92.1956 51.0294 92.2876 50.9371 92.4036 50.8888C92.5195 50.8406 92.6498 50.8404 92.7659 50.8883H92.8141L94.2194 51.2824C94.3402 51.3059 94.4474 51.3748 94.5191 51.475C94.5908 51.5752 94.6215 51.6991 94.6048 51.8212L94.6129 51.8373ZM95.713 47.9207L95.3436 49.2316C95.3199 49.2881 95.2854 49.3394 95.2418 49.3825C95.1983 49.4256 95.1468 49.4598 95.0901 49.4829C95.0334 49.5061 94.9727 49.5178 94.9115 49.5175C94.8503 49.5171 94.7897 49.5047 94.7333 49.4809L93.4244 49.1109L93.2798 49.0707C93.2191 49.0619 93.1608 49.0411 93.1081 49.0096C93.0555 48.9781 93.0096 48.9365 92.973 48.8872C92.9364 48.8379 92.91 48.7818 92.8951 48.7222C92.8802 48.6626 92.8773 48.6007 92.8864 48.5399L93.2557 47.229C93.2787 47.1718 93.3127 47.1196 93.3559 47.0757C93.3991 47.0317 93.4505 46.9967 93.5073 46.9728C93.564 46.9489 93.625 46.9364 93.6866 46.9362C93.7481 46.936 93.8092 46.9481 93.8661 46.9716L94.0909 47.036L95.3195 47.3818C95.4351 47.4033 95.5385 47.4671 95.6098 47.5608C95.681 47.6544 95.7149 47.7712 95.705 47.8885L95.713 47.9207ZM96.8212 44.004L96.4518 45.3149C96.4007 45.4283 96.3078 45.5175 96.1926 45.564C96.0774 45.6104 95.9487 45.6105 95.8335 45.5642L94.645 45.2265L94.38 45.1541C94.2568 45.1343 94.1463 45.0666 94.0726 44.9657C93.999 44.8648 93.968 44.7389 93.9865 44.6152L94.3559 43.3124C94.4054 43.1996 94.4968 43.1105 94.6107 43.064C94.7246 43.0175 94.8521 43.0171 94.9662 43.0631L95.2553 43.1435L96.4197 43.4732C96.5374 43.4948 96.6428 43.5594 96.7156 43.6546C96.7883 43.7497 96.8231 43.8685 96.8132 43.9879L96.8212 44.004Z" fill="#424242"/>
<path d="M97.3265 40.5257L96.0818 40.1719C95.8088 41.1799 95.5411 42.161 95.2788 43.1154L96.4431 43.4451C96.5654 43.4668 96.6746 43.535 96.7479 43.6354C96.8213 43.7358 96.853 43.8607 96.8366 43.9839L96.4672 45.2949C96.4161 45.4082 96.3233 45.4974 96.2081 45.5439C96.0929 45.5903 95.9642 45.5904 95.8489 45.5442L94.6604 45.2064C94.4784 45.8176 94.2937 46.4208 94.1063 47.0159L95.335 47.3618C95.4582 47.3816 95.5686 47.4493 95.6423 47.5501C95.716 47.651 95.7469 47.777 95.7284 47.9006L95.359 49.2115C95.3354 49.268 95.3008 49.3193 95.2573 49.3625C95.2138 49.4056 95.1622 49.4397 95.1055 49.4629C95.0488 49.486 94.9881 49.4977 94.9269 49.4974C94.8657 49.497 94.8052 49.4846 94.7487 49.4608L93.4398 49.0909L92.8295 50.8843L94.2348 51.2784C94.3571 51.3001 94.4663 51.3683 94.5396 51.4687C94.6129 51.5691 94.6447 51.6939 94.6283 51.8172L94.2589 53.1281C94.2077 53.2416 94.1153 53.3313 94.0005 53.3791C93.8857 53.4269 93.757 53.4292 93.6406 53.3855L92.1871 52.9753L92.0987 52.9351C91.8739 53.5624 91.641 54.1736 91.4081 54.7768C91.4981 54.757 91.5912 54.757 91.6812 54.7768L93.1266 55.187C93.2499 55.2068 93.3603 55.2745 93.434 55.3754C93.5077 55.4763 93.5386 55.6022 93.5201 55.7258L93.1507 57.0367C93.1278 57.094 93.0938 57.1461 93.0506 57.1901C93.0074 57.234 92.9559 57.269 92.8992 57.293C92.8424 57.3169 92.7815 57.3293 92.7199 57.3295C92.6583 57.3297 92.5973 57.3177 92.5404 57.2941L91.0869 56.8839C91.0029 56.8622 90.9248 56.8221 90.8581 56.7664C90.7914 56.7108 90.7379 56.6411 90.7015 56.5622C80.9045 80.9628 69.1401 85.571 62.8283 86.0938L62.7159 86.5039C62.6648 86.6173 62.5719 86.7065 62.4567 86.753C62.3415 86.7994 62.2128 86.7995 62.0975 86.7533L60.644 86.3431C60.5095 86.308 60.3942 86.2213 60.3228 86.1018C59.9856 86.1018 59.6965 86.0375 59.4395 85.9973L58.1948 90.4286C58.1519 90.577 58.1386 90.7324 58.1557 90.886C58.1728 91.0395 58.2201 91.1881 58.2947 91.3234C58.3693 91.4586 58.4698 91.5778 58.5904 91.674C58.7111 91.7703 58.8495 91.8417 58.9978 91.8843L81.0972 98.1332C81.3964 98.2179 81.7169 98.1809 81.989 98.0303C82.2612 97.8797 82.463 97.6277 82.5507 97.329L98.1456 41.9814C98.1882 41.832 98.2008 41.6755 98.1827 41.5212C98.1645 41.3668 98.1159 41.2176 98.0397 41.0822C97.9635 40.9468 97.8612 40.8278 97.7388 40.7323C97.6164 40.6368 97.4762 40.5666 97.3265 40.5257ZM61.9931 89.1177L61.6237 90.4286C61.6001 90.4851 61.5655 90.5365 61.522 90.5796C61.4785 90.6227 61.4269 90.6568 61.3702 90.68C61.3135 90.7031 61.2528 90.7149 61.1916 90.7145C61.1304 90.7142 61.0699 90.7017 61.0134 90.6779L59.56 90.2678C59.4367 90.248 59.3263 90.1803 59.2526 90.0794C59.1789 89.9785 59.148 89.8526 59.1665 89.7289L59.5359 88.418C59.5596 88.3615 59.5941 88.3102 59.6377 88.2671C59.6812 88.224 59.7327 88.1898 59.7894 88.1667C59.8461 88.1435 59.9068 88.1318 59.968 88.1321C60.0292 88.1325 60.0898 88.1449 60.1462 88.1687L61.5997 88.5789C61.717 88.6059 61.8196 88.6766 61.8867 88.7767C61.9538 88.8768 61.9804 88.9987 61.961 89.1177H61.9931ZM82.5025 94.9082L82.1251 96.2191C82.0771 96.3353 81.9851 96.4277 81.8691 96.4759C81.7532 96.5242 81.6229 96.5244 81.5068 96.4765L80.0533 96.0663C79.931 96.0446 79.8218 95.9764 79.7485 95.876C79.6752 95.7756 79.6434 95.6508 79.6598 95.5275L80.0292 94.2166C80.0804 94.1031 80.1728 94.0134 80.2876 93.9656C80.4024 93.9178 80.5311 93.9155 80.6475 93.9592L82.101 94.3774C82.2182 94.4027 82.3215 94.4715 82.39 94.57C82.4586 94.6685 82.4873 94.7894 82.4704 94.9082H82.5025ZM83.6027 90.9916L83.2333 92.3025C83.1836 92.4173 83.0914 92.5083 82.9761 92.5563C82.8607 92.6043 82.7312 92.6056 82.615 92.5598L81.1695 92.1497C81.0463 92.1299 80.9358 92.0622 80.8621 91.9613C80.7885 91.8604 80.7575 91.7345 80.776 91.6108L81.1454 90.2999C81.195 90.1871 81.2859 90.0975 81.3994 90.0496C81.5129 90.0018 81.6404 89.9993 81.7557 90.0426L83.2092 90.4527C83.3265 90.4798 83.4292 90.5505 83.4963 90.6506C83.5634 90.7507 83.59 90.8726 83.5706 90.9916H83.6027ZM84.7109 87.075L84.3415 88.3859C84.2903 88.4993 84.1979 88.5891 84.0831 88.6369C83.9682 88.6847 83.8396 88.6869 83.7231 88.6432L82.2696 88.2331C82.1464 88.2133 82.036 88.1455 81.9623 88.0447C81.8886 87.9438 81.8577 87.8178 81.8762 87.6942L82.2456 86.3833C82.2952 86.2685 82.3874 86.1775 82.5028 86.1295C82.6181 86.0815 82.7476 86.0802 82.8639 86.1259L84.3174 86.5361C84.4328 86.5664 84.5332 86.6379 84.5998 86.7371C84.6663 86.8363 84.6944 86.9565 84.6787 87.075H84.7109ZM85.811 83.1583L85.4416 84.4692C85.3904 84.5827 85.298 84.6724 85.1832 84.7202C85.0684 84.768 84.9397 84.7703 84.8233 84.7266L83.3698 84.3164C83.2481 84.2947 83.1396 84.2263 83.0676 84.1256C82.9955 84.0249 82.9657 83.9 82.9844 83.7776L83.3537 82.4667C83.3767 82.4094 83.4107 82.3573 83.4539 82.3133C83.4971 82.2694 83.5485 82.2344 83.6053 82.2104C83.662 82.1865 83.723 82.1741 83.7845 82.1739C83.8461 82.1737 83.9071 82.1857 83.964 82.2093L85.4175 82.6195C85.5349 82.6465 85.6375 82.7173 85.7046 82.8173C85.7717 82.9174 85.7983 83.0393 85.7789 83.1583H85.811ZM86.9112 79.2417L86.5498 80.5526C86.4987 80.666 86.4058 80.7552 86.2906 80.8016C86.1754 80.8481 86.0468 80.8482 85.9315 80.8019L84.478 80.3918C84.4165 80.383 84.3574 80.3619 84.3041 80.3299C84.2509 80.2979 84.2046 80.2555 84.1679 80.2053C84.1313 80.1551 84.105 80.0981 84.0907 80.0376C84.0763 79.9771 84.0742 79.9143 84.0845 79.8529L84.4539 78.542C84.505 78.4286 84.5979 78.3394 84.7131 78.293C84.8283 78.2465 84.9569 78.2464 85.0722 78.2927L86.5257 78.7029C86.6432 78.7316 86.7452 78.8043 86.8109 78.906C86.8766 79.0077 86.901 79.1306 86.879 79.2497L86.9112 79.2417ZM88.0194 75.3251L87.65 76.636C87.5988 76.7493 87.506 76.8385 87.3908 76.885C87.2756 76.9314 87.1469 76.9315 87.0316 76.8853L85.5781 76.4751C85.4564 76.4534 85.3479 76.385 85.2759 76.2843C85.2039 76.1836 85.174 76.0587 85.1927 75.9363L85.5621 74.6254C85.5858 74.5688 85.6204 74.5175 85.6639 74.4744C85.7074 74.4313 85.7589 74.3972 85.8156 74.374C85.8723 74.3508 85.933 74.3391 85.9942 74.3395C86.0554 74.3398 86.116 74.3523 86.1724 74.3761L87.6259 74.7862C87.7432 74.8133 87.8458 74.884 87.9129 74.9841C87.9801 75.0842 88.0066 75.2061 87.9872 75.3251H88.0194ZM89.1195 71.4084L88.7501 72.7193C88.7264 72.7759 88.6918 72.8272 88.6483 72.8703C88.6048 72.9134 88.5532 72.9475 88.4966 72.9707C88.4399 72.9938 88.3792 73.0056 88.318 73.0052C88.2568 73.0049 88.1962 72.9925 88.1398 72.9686L86.6863 72.5585C86.5631 72.5387 86.4526 72.471 86.379 72.3701C86.3053 72.2692 86.2743 72.1433 86.2928 72.0197L86.6622 70.7087C86.7133 70.5954 86.8062 70.5062 86.9214 70.4597C87.0366 70.4133 87.1653 70.4132 87.2806 70.4594L88.734 70.8696C88.8499 70.8983 88.9506 70.9698 89.0161 71.0697C89.0816 71.1696 89.1071 71.2906 89.0874 71.4084H89.1195ZM90.2277 67.4918L89.8583 68.8027C89.8072 68.9161 89.7143 69.0053 89.5991 69.0517C89.4839 69.0982 89.3552 69.0983 89.24 69.052L87.7865 68.6418C87.6651 68.6183 87.5571 68.5497 87.4841 68.4498C87.4111 68.3499 87.3786 68.226 87.393 68.103L87.7624 66.7921C87.8135 66.6788 87.9063 66.5895 88.0216 66.5431C88.1368 66.4966 88.2654 66.4965 88.3807 66.5428L89.8342 66.9529C89.9515 66.98 90.0542 67.0507 90.1213 67.1508C90.1884 67.2509 90.215 67.3728 90.1956 67.4918H90.2277ZM91.3278 63.5671L90.9584 64.878C90.9355 64.9353 90.9015 64.9874 90.8583 65.0314C90.8151 65.0754 90.7637 65.1103 90.7069 65.1343C90.6502 65.1582 90.5892 65.1706 90.5276 65.1708C90.4661 65.171 90.4051 65.159 90.3481 65.1354L88.8946 64.7252C88.7714 64.7054 88.661 64.6377 88.5873 64.5368C88.5136 64.4359 88.4827 64.31 88.5012 64.1864L88.8706 62.8755C88.9217 62.7621 89.0145 62.6729 89.1297 62.6264C89.2449 62.58 89.3736 62.5799 89.4889 62.6262L90.9424 63.0363C91.0576 63.0633 91.1582 63.1332 91.2238 63.2318C91.2894 63.3304 91.3151 63.4502 91.2957 63.5671H91.3278ZM92.436 59.6505L92.0666 60.9614C92.0186 61.0776 91.9266 61.1699 91.8106 61.2182C91.6947 61.2665 91.5644 61.2666 91.4483 61.2187L89.9948 60.8086C89.8734 60.7851 89.7654 60.7165 89.6924 60.6165C89.6195 60.5166 89.5869 60.3927 89.6013 60.2697L89.9707 58.9588C90.0218 58.8455 90.1147 58.7563 90.2299 58.7098C90.3451 58.6634 90.4738 58.6633 90.589 58.7095L92.0425 59.1197C92.1592 59.1449 92.2618 59.2141 92.329 59.3128C92.3962 59.4116 92.4231 59.5325 92.4039 59.6505H92.436Z" fill="#2F2F2F"/>
<path d="M83.0195 80.8085L79.5584 93.0892C79.5266 93.1942 79.4864 93.2964 79.438 93.3948C79.278 93.7152 79.0123 93.9704 78.6859 94.1169C78.3595 94.2635 77.9925 94.2925 77.6472 94.199L63.9957 90.3387C63.6519 90.2414 63.3522 90.0282 63.1474 89.7351C62.9425 89.442 62.845 89.087 62.8714 88.7302C62.8792 88.6214 62.8981 88.5136 62.9276 88.4085L66.3887 76.1278C66.5009 75.7324 66.7652 75.3977 67.1235 75.1972C67.4818 74.9967 67.9049 74.9467 68.2999 75.0582L81.9514 78.9185C82.3409 79.0311 82.6708 79.292 82.8704 79.6453C83.0701 79.9986 83.1236 80.4162 83.0195 80.8085Z" fill="#EEEEEE"/>
<path d="M81.9516 78.8948L78.0409 77.793C72.4919 83.6559 67.2642 85.5378 63.5863 86.0123L62.9198 88.3848C62.8902 88.4898 62.8714 88.5976 62.8636 88.7065C62.8372 89.0633 62.9347 89.4182 63.1395 89.7113C63.3444 90.0044 63.6441 90.2177 63.9879 90.3149L77.6394 94.1753C77.9847 94.2688 78.3517 94.2398 78.6781 94.0932C79.0045 93.9466 79.2702 93.6915 79.4301 93.371C79.4785 93.2726 79.5188 93.1704 79.5506 93.0654L83.0116 80.7847C83.1161 80.3935 83.0637 79.9768 82.8656 79.6237C82.6676 79.2706 82.3396 79.009 81.9516 78.8948Z" fill="#AAAAAA"/>
<path d="M76.9326 91.6864L76.8121 90.2549C76.7946 90.1007 76.733 89.955 76.6347 89.8351C76.5364 89.7152 76.4056 89.6264 76.258 89.5793H76.1135L76.4026 88.8474C76.4026 88.8474 76.4427 88.8474 76.4507 88.8474V88.7911V88.7429C76.4566 88.7347 76.4598 88.7249 76.4598 88.7148C76.4598 88.7047 76.4566 88.6948 76.4507 88.6866L76.8523 87.6893C76.8523 87.6893 76.8041 87.6089 76.7158 87.5526L76.788 87.3757C76.9004 87.3757 76.9727 87.3757 76.9808 87.3757V87.2309C76.9808 87.1746 76.7157 87.0057 76.3383 86.8449L76.2098 86.8047L76.2741 86.4589L76.8844 85.0514C77.3823 83.8933 77.2377 83.6038 77.061 83.5475C76.9774 83.5215 76.8878 83.5215 76.8041 83.5475C76.7559 83.5475 76.6595 83.6762 76.5873 83.8531C76.5406 83.9487 76.5133 84.0526 76.507 84.1588C76.507 84.1588 76.507 84.215 76.507 84.2231C76.507 84.2231 76.6033 84.2231 76.507 84.5448C75.4707 84.056 74.3965 83.6525 73.2948 83.3384C72.813 83.2017 72.3312 83.0811 71.8414 82.9846C71.215 82.8559 70.5726 82.7513 69.9301 82.679C69.9864 82.5181 70.0345 82.5261 70.0586 82.5342C70.1068 82.5342 70.1711 82.3814 70.2032 82.1964C70.2145 82.111 70.2145 82.0245 70.2032 81.9391C70.2032 81.8747 70.2032 81.8265 70.163 81.8184C70.1229 81.8104 69.625 81.0142 69.36 83.0248L69.1592 84.4161L69.0307 84.7298H68.9183C68.8047 84.7058 68.6891 84.6924 68.573 84.6896C68.3401 84.6896 68.1795 84.6896 68.1715 84.6896L68.0832 84.8102L68.2197 84.8826V85.0756C68.1073 85.0756 68.043 85.0756 68.027 85.1158L67.8503 86.1693C67.8503 86.1693 67.8101 86.1693 67.8101 86.2095V86.2659V86.3222C67.8052 86.3307 67.8026 86.3404 67.8026 86.3503C67.8026 86.3602 67.8052 86.3699 67.8101 86.3784L67.6736 87.1827L67.4889 87.1264C67.3355 87.0858 67.1736 87.0917 67.0235 87.1432C66.8735 87.1948 66.742 87.2896 66.6457 87.4159L65.8427 88.5821C65.8124 88.6243 65.7956 88.6748 65.7945 88.7268C65.6713 88.7673 65.5661 88.8499 65.4974 88.96L65.3288 89.2496L64.7667 90.2066C64.736 90.2506 64.7158 90.3009 64.7074 90.3539C64.6991 90.4068 64.7029 90.461 64.7185 90.5122L76.8844 93.9463C76.9242 93.9114 76.9557 93.868 76.9766 93.8193C76.9974 93.7706 77.0071 93.7178 77.0048 93.6648V92.563V92.2172C77.0013 92.0816 76.9468 91.9524 76.8523 91.8553C76.8762 91.8339 76.8956 91.808 76.9094 91.779C76.9232 91.7499 76.9311 91.7185 76.9326 91.6864ZM69.0388 87.7778L68.7577 88.4212C68.7467 88.4407 68.7301 88.4565 68.7101 88.4666C68.6901 88.4766 68.6675 88.4804 68.6453 88.4775L66.9429 87.995C66.931 87.9817 66.9245 87.9645 66.9245 87.9467C66.9245 87.9289 66.931 87.9117 66.9429 87.8985L67.2962 87.2711C67.3075 87.2523 67.3244 87.2375 67.3446 87.2288C67.3648 87.2201 67.3872 87.2181 67.4086 87.2229L69.0147 87.6813C69.0303 87.6913 69.0414 87.7068 69.0459 87.7248C69.0504 87.7427 69.0478 87.7617 69.0388 87.7778ZM73.5117 84.1025C73.5269 84.0751 73.5522 84.0547 73.5822 84.0457C73.6122 84.0367 73.6445 84.0398 73.6723 84.0542C74.3081 84.2128 74.917 84.4648 75.4791 84.8021C75.5835 84.8826 75.6798 85.2767 75.4791 85.1962C74.8417 84.8912 74.1875 84.6227 73.5197 84.392C73.4474 84.392 73.3992 84.3035 73.4153 84.2472L73.5117 84.1025ZM70.4521 83.7486L70.9821 83.4591C71.5476 83.5058 72.107 83.6081 72.6524 83.7647C72.7327 83.7647 72.7809 83.837 72.7729 83.8933L72.7247 84.0783C72.7247 84.1346 72.6444 84.1587 72.5641 84.1427C71.8811 83.9797 71.1894 83.8562 70.4923 83.7727H70.4521V83.7486ZM73.8088 87.1183C72.8808 86.7516 71.9174 86.4821 70.9339 86.3141L70.2915 86.1935C70.2536 86.1873 70.2176 86.1729 70.1858 86.1514C70.154 86.1299 70.1272 86.1017 70.1074 86.0688C70.0875 86.036 70.075 85.9991 70.0708 85.9609C70.0665 85.9228 70.0706 85.8841 70.0827 85.8477L70.5324 84.5609C70.5511 84.4997 70.5919 84.4476 70.6468 84.4149C70.7018 84.3822 70.7669 84.3711 70.8295 84.3839L71.3756 84.4804C72.407 84.6559 73.4165 84.9417 74.387 85.3329L74.9009 85.534C74.9597 85.5574 75.0082 85.601 75.0376 85.6571C75.0671 85.7131 75.0756 85.7779 75.0615 85.8396L74.7724 87.1666C74.7658 87.2048 74.7507 87.241 74.7281 87.2725C74.7056 87.304 74.6762 87.33 74.6423 87.3485C74.6083 87.3671 74.5706 87.3777 74.5319 87.3797C74.4933 87.3816 74.4547 87.3747 74.4191 87.3596L73.8088 87.1183ZM76.3624 90.5685C76.3627 90.5785 76.3607 90.5884 76.3565 90.5975C76.3524 90.6066 76.3461 90.6146 76.3383 90.6208C76.3305 90.627 76.3214 90.6314 76.3117 90.6335C76.3019 90.6356 76.2918 90.6354 76.2821 90.6328L74.5797 90.1503C74.5576 90.1446 74.5385 90.1305 74.5265 90.111C74.5145 90.0915 74.5106 90.0681 74.5154 90.0458L74.6038 89.3461C74.6057 89.3364 74.6095 89.3273 74.615 89.3192C74.6205 89.3111 74.6276 89.3042 74.6359 89.299C74.6442 89.2937 74.6534 89.2902 74.6631 89.2886C74.6727 89.287 74.6826 89.2874 74.6921 89.2898L76.2982 89.7562C76.3187 89.7619 76.3365 89.7748 76.3483 89.7925C76.3601 89.8102 76.3651 89.8316 76.3624 89.8527V90.5685Z" fill="#6C6C6C"/>
<path d="M70.9788 83.4609L70.4488 83.7505C70.3846 83.6861 70.6094 83.477 70.7219 83.4609H70.9788Z" fill="#EEEEEE"/>
<path d="M79.4145 93.481C79.2545 93.8014 78.9888 94.0565 78.6624 94.2031C78.336 94.3497 77.9691 94.3787 77.6237 94.2852L63.9722 90.4249C63.6284 90.3276 63.3288 90.1144 63.1239 89.8213C62.919 89.5282 62.8216 89.1732 62.848 88.8164C63.651 88.9451 64.5022 89.0898 65.3374 89.2507C67.2807 89.6287 69.2642 90.1032 71.2557 90.6661C73.2472 91.2291 75.1825 91.8644 77.0375 92.5641C77.8406 92.8617 78.6436 93.1673 79.3744 93.489L79.4145 93.481Z" fill="#6C6C6C"/>
<path d="M77.0577 92.5467V92.2009C77.0541 92.0654 76.9996 91.9361 76.9051 91.839C76.9217 91.7894 76.9217 91.7358 76.9051 91.6862L76.7847 90.2547C76.7672 90.1005 76.7056 89.9548 76.6073 89.8349C76.509 89.715 76.3782 89.6262 76.2306 89.5791H76.086L76.3751 88.8472C76.3751 88.8472 76.4153 88.8472 76.4233 88.8472V88.7909V88.7427C76.4292 88.7345 76.4324 88.7247 76.4324 88.7146C76.4324 88.7045 76.4292 88.6946 76.4233 88.6864L76.8248 87.6891C76.8248 87.6891 76.7766 87.6087 76.6883 87.5524L76.7606 87.3755C76.873 87.3755 76.9453 87.3755 76.9533 87.3755V87.2307C76.9533 87.1744 76.6883 87.0055 76.3109 86.8447L76.1824 86.8045L76.2466 86.4587L76.8569 85.0512C77.3548 83.8931 77.2103 83.6036 77.0336 83.5473C76.9499 83.5213 76.8603 83.5213 76.7766 83.5473C76.7285 83.5473 76.6321 83.676 76.5598 83.8529C76.5131 83.9485 76.4858 84.0524 76.4795 84.1586C76.4795 84.1586 76.4795 84.2148 76.4795 84.2229C76.4795 84.2229 76.5759 84.2229 76.4795 84.5446C75.4433 84.0558 74.369 83.6523 73.2674 83.3382C72.7856 83.2015 72.3038 83.0809 71.8139 82.9844C71.5088 83.1774 71.2116 83.3543 70.9145 83.5232C71.48 83.5699 72.0394 83.6723 72.5848 83.8288C72.6651 83.8288 72.7133 83.9012 72.7053 83.9575L72.6571 84.1425C72.6571 84.1987 72.5768 84.2229 72.4965 84.2068C71.8135 84.0439 71.1218 83.9204 70.4247 83.8369H70.3845C69.9589 84.054 69.5413 84.2631 69.1318 84.4481L69.0033 84.7617H68.8909C68.7773 84.7378 68.6617 84.7243 68.5456 84.7215L68.0798 84.9145L68.2163 84.9869V85.1799C68.1039 85.1799 68.0397 85.1799 68.0236 85.2202L67.8469 86.2737C67.8469 86.2737 67.8068 86.2737 67.8068 86.3139V86.3702V86.4265C67.8019 86.4351 67.7993 86.4448 67.7993 86.4546C67.7993 86.4645 67.8019 86.4742 67.8068 86.4828L67.6703 87.287L67.4856 87.2307C67.3322 87.1902 67.1703 87.1961 67.0202 87.2476C66.8701 87.2991 66.7387 87.394 66.6424 87.5203L65.8394 88.6864C65.8091 88.7287 65.7923 88.7791 65.7912 88.8312C65.6679 88.8717 65.5628 88.9542 65.4941 89.0644L65.3254 89.3539C64.5224 89.1931 63.6551 89.0483 62.836 88.9196C62.8322 89.2592 62.9403 89.5906 63.1435 89.8625C63.3467 90.1344 63.6338 90.3316 63.9603 90.4236L77.6118 94.2839C77.9378 94.3764 78.2851 94.3587 78.6001 94.2337C78.9151 94.1087 79.1801 93.8833 79.3544 93.5922C78.6316 93.1499 77.8527 92.8443 77.0577 92.5467ZM76.3269 89.756C76.3475 89.7617 76.3653 89.7746 76.3771 89.7923C76.3889 89.81 76.3939 89.8314 76.3912 89.8525V90.5683C76.3915 90.5783 76.3895 90.5882 76.3853 90.5973C76.3811 90.6064 76.3749 90.6144 76.3671 90.6206C76.3593 90.6268 76.3502 90.6312 76.3404 90.6333C76.3307 90.6354 76.3205 90.6352 76.3109 90.6326L74.6085 90.1501C74.5863 90.1444 74.5673 90.1303 74.5553 90.1108C74.5433 90.0913 74.5393 90.0679 74.5442 90.0456L74.6326 89.3459C74.6344 89.3362 74.6383 89.3271 74.6438 89.319C74.6493 89.3109 74.6564 89.304 74.6647 89.2988C74.6729 89.2935 74.6822 89.29 74.6918 89.2884C74.7015 89.2868 74.7114 89.2872 74.7209 89.2896L76.3269 89.756ZM73.5163 84.1264C73.5316 84.099 73.5569 84.0787 73.5869 84.0697C73.6169 84.0607 73.6492 84.0637 73.6769 84.0781C74.3128 84.2367 74.9217 84.4887 75.4838 84.8261C75.5882 84.9065 75.6845 85.3006 75.4838 85.2202C74.8464 84.9151 74.1922 84.6466 73.5244 84.4159C73.4521 84.4159 73.4039 84.3274 73.42 84.2711L73.5163 84.1264ZM70.0794 85.8394L70.5291 84.5526C70.5478 84.4914 70.5885 84.4394 70.6435 84.4066C70.6984 84.3739 70.7636 84.3629 70.8262 84.3757L71.3723 84.4722C72.4036 84.6476 73.4132 84.9334 74.3836 85.3247L74.8976 85.5257C74.9563 85.5491 75.0048 85.5928 75.0343 85.6488C75.0637 85.7049 75.0722 85.7696 75.0582 85.8314L74.7691 87.1583C74.7625 87.1965 74.7473 87.2327 74.7248 87.2642C74.7022 87.2957 74.6729 87.3217 74.6389 87.3403C74.605 87.3588 74.5672 87.3695 74.5286 87.3714C74.4899 87.3733 74.4514 87.3665 74.4157 87.3514L73.8054 87.1181C72.8774 86.7514 71.914 86.4819 70.9306 86.3139L70.2882 86.1933C70.2493 86.1873 70.2123 86.1728 70.1798 86.1508C70.1472 86.1288 70.12 86.0998 70.1 86.0659C70.08 86.032 70.0678 85.9942 70.0642 85.955C70.0607 85.9158 70.0658 85.8763 70.0794 85.8394ZM66.8673 87.8982L67.2206 87.2709C67.2319 87.2521 67.2488 87.2373 67.269 87.2286C67.2892 87.2199 67.3116 87.2179 67.333 87.2227L68.9391 87.6811C68.9482 87.6846 68.9565 87.69 68.9634 87.6968C68.9704 87.7036 68.976 87.7118 68.9797 87.7208C68.9835 87.7298 68.9854 87.7395 68.9853 87.7492C68.9852 87.759 68.9831 87.7687 68.9792 87.7776L68.6982 88.421C68.6872 88.4405 68.6706 88.4563 68.6505 88.4664C68.6305 88.4764 68.6079 88.4802 68.5857 88.4773L66.8833 87.9948C66.8743 87.9786 66.8717 87.9596 66.8762 87.9417C66.8807 87.9237 66.8918 87.9082 66.9074 87.8982H66.8673Z" fill="#424242"/>
<path d="M71.427 58.207L67.9678 70.4827C67.7353 71.3077 68.2147 72.1653 69.0385 72.3981L82.6946 76.2579C83.5184 76.4908 84.3746 76.0107 84.6071 75.1857L88.0664 62.91C88.2988 62.085 87.8195 61.2274 86.9957 60.9946L73.3396 57.1348C72.5158 56.902 71.6595 57.382 71.427 58.207Z" fill="#EEEEEE"/>
<path d="M80.0547 75.5093L82.6967 76.2573C83.0864 76.3704 83.5048 76.3259 83.8622 76.1334C84.2195 75.941 84.4873 75.6158 84.6079 75.2278L88.0609 62.9472C88.1081 62.7937 88.1245 62.6325 88.1091 62.4727C85.9584 67.1273 83.254 71.5046 80.0547 75.5093Z" fill="#AAAAAA"/>
<path d="M81.4926 75.4929L81.4043 74.3348V74.0533C81.3982 73.9903 81.3848 73.9282 81.3642 73.8684C81.3179 73.7535 81.2473 73.6502 81.1572 73.5655C81.067 73.4807 80.9595 73.4167 80.8422 73.3778L80.6976 73.3376L80.9867 72.6138C80.9955 72.618 81.0051 72.6202 81.0148 72.6202C81.0246 72.6202 81.0342 72.618 81.0429 72.6138V72.5575V72.5012C81.0488 72.4929 81.052 72.4831 81.052 72.473C81.052 72.4629 81.0488 72.4531 81.0429 72.4449L81.4445 71.4557C81.4445 71.4557 81.4043 71.3752 81.3079 71.3189L81.3802 71.134C81.4926 71.134 81.5649 71.134 81.581 71.134V70.9812C81.581 70.9249 81.316 70.7479 80.9305 70.5951L80.8101 70.5469L80.8743 70.201L81.4766 68.7936C81.9745 67.6355 81.8379 67.346 81.6532 67.2978C81.5702 67.2677 81.4793 67.2677 81.3963 67.2978C81.3481 67.2978 81.2517 67.4184 81.1795 67.6034C81.1072 67.7883 81.0751 67.9492 81.1232 67.9653C81.1232 67.9653 81.2196 67.9653 81.1232 68.287C80.0892 67.7908 79.0146 67.3845 77.9111 67.0726C76.8096 66.7602 75.6842 66.5397 74.5464 66.4131C74.6026 66.2603 74.6508 66.2603 74.6749 66.2764C74.7231 66.2764 74.7873 66.1236 74.8195 65.9306C74.8305 65.8478 74.8305 65.764 74.8195 65.6812C74.8195 65.6089 74.8195 65.5687 74.7793 65.5606C74.7392 65.5526 74.2413 64.7564 73.9763 66.767L73.7755 68.1503L73.6551 68.48H73.5346C73.354 68.4493 73.1716 68.4305 72.9885 68.4237C72.8681 68.4237 72.7878 68.4237 72.7878 68.4719L72.6995 68.6006C72.6995 68.6006 72.7557 68.673 72.8601 68.7132V68.8982C72.7557 68.8982 72.6834 68.8982 72.6754 68.9464L72.4987 70V70.0563V70.1206C72.4945 70.128 72.4922 70.1363 72.4922 70.1447C72.4922 70.1532 72.4945 70.1615 72.4987 70.1689L72.3702 70.9731L72.1775 70.9168C72.0292 70.8855 71.8752 70.8968 71.7331 70.9495C71.591 71.0021 71.4666 71.094 71.3745 71.2144L71.2299 71.4235L70.5634 72.3805C70.5275 72.4202 70.5075 72.4718 70.5072 72.5253C70.4013 72.5568 70.3084 72.6217 70.2422 72.7103L80.1837 75.517L81.7496 75.9594C81.7307 75.8421 81.6776 75.7329 81.597 75.6457C81.592 75.6141 81.58 75.5841 81.5619 75.5576C81.5439 75.5312 81.5202 75.5091 81.4926 75.4929ZM73.2857 72.2197C73.2857 72.2599 73.2134 72.2921 73.1732 72.276L71.4708 71.7934C71.464 71.7874 71.4585 71.78 71.4548 71.7717C71.451 71.7633 71.4491 71.7543 71.4491 71.7452C71.4491 71.7361 71.451 71.727 71.4548 71.7187C71.4585 71.7104 71.464 71.703 71.4708 71.6969L71.8161 71.0777C71.8264 71.0578 71.8432 71.0422 71.8637 71.0334C71.8842 71.0246 71.9071 71.0232 71.9285 71.0294L73.5346 71.4878C73.5441 71.4895 73.5532 71.4933 73.561 71.4989C73.5689 71.5046 73.5754 71.5119 73.58 71.5204C73.5847 71.5289 73.5873 71.5384 73.5878 71.548C73.5883 71.5577 73.5866 71.5674 73.5828 71.5763L73.2857 72.2197ZM78.1038 67.909C78.1038 67.8527 78.1922 67.8285 78.2725 67.8527C78.9081 68.016 79.5166 68.2706 80.0793 68.6086C80.1757 68.681 80.272 69.0751 80.0793 68.9947C79.4289 68.681 78.4732 68.3433 78.1119 68.1905C78.0396 68.1905 77.9914 68.102 78.0155 68.0537L78.1038 67.909ZM75.3173 67.2575C75.9736 67.267 76.6253 67.3699 77.2526 67.5632C77.3249 67.5632 77.3811 67.6436 77.3651 67.6999L77.3169 67.8768C77.3169 67.9331 77.2366 67.9653 77.1643 67.9492C76.4785 67.7871 75.7841 67.6636 75.0845 67.5792C74.8917 67.5631 75.1567 67.2736 75.2852 67.2575H75.3173ZM78.401 70.9168C77.4709 70.5564 76.5081 70.2871 75.5261 70.1126L74.8837 70C74.8456 69.993 74.8094 69.9778 74.7778 69.9553C74.7462 69.9329 74.72 69.9037 74.7008 69.87C74.6817 69.8363 74.6702 69.7987 74.6671 69.7601C74.664 69.7214 74.6694 69.6825 74.6829 69.6461L75.1246 68.3593C75.1461 68.3 75.1875 68.25 75.2416 68.2178C75.2958 68.1855 75.3594 68.173 75.4217 68.1824L75.9678 68.2789C76.9985 68.457 78.0078 68.7428 78.9791 69.1314L79.4931 69.3325C79.5506 69.3581 79.5981 69.4018 79.6286 69.4569C79.659 69.5121 79.6707 69.5757 79.6617 69.6381L79.3646 70.9731C79.3567 71.0106 79.3407 71.0459 79.3179 71.0766C79.295 71.1073 79.2658 71.1327 79.2323 71.151C79.1987 71.1694 79.1616 71.1802 79.1234 71.1828C79.0853 71.1854 79.047 71.1797 79.0113 71.1661L78.401 70.9168ZM80.9546 74.375C80.9549 74.385 80.9529 74.3949 80.9487 74.404C80.9446 74.4131 80.9383 74.4211 80.9305 74.4273C80.9227 74.4336 80.9136 74.4379 80.9038 74.44C80.8941 74.4421 80.884 74.4419 80.8743 74.4394L79.1719 73.9568C79.1515 73.9484 79.1344 73.9338 79.1228 73.915C79.1113 73.8962 79.106 73.8743 79.1076 73.8523L79.196 73.1526C79.1965 73.1424 79.1995 73.1324 79.2046 73.1235C79.2098 73.1146 79.217 73.1071 79.2256 73.1016C79.2343 73.0961 79.2441 73.0928 79.2543 73.0918C79.2645 73.0909 79.2748 73.0924 79.2843 73.0963L80.8904 73.5547C80.9122 73.5618 80.9311 73.5758 80.9442 73.5947C80.9573 73.6136 80.9637 73.6363 80.9626 73.6593L80.9546 74.375Z" fill="#6C6C6C"/>
<path d="M84.4763 75.526L84.4121 75.6306C84.2318 75.9028 83.9696 76.1105 83.6634 76.2233C83.3573 76.3361 83.0232 76.3482 82.7097 76.2579L69.0582 72.3975C68.7144 72.3003 68.4147 72.087 68.2099 71.7939C68.005 71.5008 67.9075 71.1459 67.9339 70.7891C69.0046 70.9499 70.0753 71.1429 71.1461 71.3681L71.6198 71.4646C72.2382 71.5933 72.8645 71.738 73.4909 71.8828C74.4465 72.116 75.4101 72.3654 76.3738 72.6388C77.3374 72.9122 78.2448 73.1937 79.1603 73.4913C79.7706 73.6923 80.3809 73.8934 80.9751 74.1105L81.1277 74.1668C81.2373 74.2 81.3446 74.2402 81.4489 74.2875C82.4929 74.6574 83.5127 75.0917 84.5085 75.4778L84.4763 75.526Z" fill="#6C6C6C"/>
<path d="M84.4627 75.5248L84.4065 75.6294C84.2159 75.8848 83.9539 76.0777 83.6536 76.1837C83.3534 76.2897 83.0284 76.3039 82.7201 76.2245L81.644 75.9189L80.0781 75.4766C80.4154 75.0584 80.7607 74.6322 81.106 74.1818L81.363 73.8359C81.3836 73.8958 81.3971 73.9579 81.4031 74.0209V74.3024C82.4471 74.7045 83.4669 75.1066 84.4627 75.5248Z" fill="#424242"/>
<path d="M76.4739 40.3008L73.0147 52.5765C72.7822 53.4015 73.2616 54.2591 74.0854 54.4919L87.7415 58.3517C88.5653 58.5845 89.4215 58.1045 89.654 57.2794L93.1133 45.0037C93.3457 44.1787 92.8664 43.3212 92.0426 43.0883L78.3865 39.2285C77.5627 38.9957 76.7064 39.4758 76.4739 40.3008Z" fill="#EEEEEE"/>
<path d="M85.7718 53.3097L85.6514 53.2615L85.7156 52.9237L86.3179 51.5163C86.8158 50.3502 86.6793 50.0606 86.4946 50.0124C86.4135 49.987 86.3267 49.987 86.2456 50.0124C86.1974 50.0124 86.1011 50.133 86.0208 50.318C85.9405 50.503 85.9244 50.6638 85.9646 50.688C85.9646 50.688 86.0529 50.6879 85.9646 51.0096C84.9298 50.5152 83.8553 50.1089 82.7524 49.7952C81.6507 49.4856 80.5253 49.2677 79.3878 49.1438C79.444 48.983 79.5002 48.983 79.5162 48.999C79.5644 48.999 79.6287 48.8463 79.6608 48.6532C79.6684 48.5703 79.6684 48.4869 79.6608 48.4039C79.6608 48.3396 79.6608 48.2913 79.6608 48.2833C79.6608 48.2752 79.1308 47.479 78.8578 49.4896L78.649 50.8729L78.5285 51.2027H78.4161C78.0065 51.1383 77.6773 51.1303 77.6612 51.2027L77.5729 51.3233C77.5729 51.3233 77.6291 51.3957 77.7415 51.4359V51.6289C77.6371 51.6289 77.5649 51.6289 77.5568 51.6691L77.2999 52.7146C77.2884 52.7145 77.2772 52.7184 77.2684 52.7258C77.2595 52.7332 77.2536 52.7435 77.2517 52.7548V52.8111V52.8674V52.9157L77.1232 53.7199L76.9305 53.6636C76.7822 53.6323 76.6282 53.6436 76.4861 53.6963C76.344 53.7489 76.2196 53.8408 76.1274 53.9612L75.4609 54.9021L86.35 57.9824L86.2537 56.8082C86.2356 56.6531 86.1728 56.5066 86.073 56.3866C85.9731 56.2667 85.8406 56.1784 85.6915 56.1326L85.547 56.0924L85.8361 55.3686C85.8446 55.3735 85.8543 55.3761 85.8642 55.3761C85.8741 55.3761 85.8837 55.3735 85.8923 55.3686V55.3123V55.256C85.8982 55.2478 85.9013 55.238 85.9013 55.2279C85.9013 55.2178 85.8982 55.2079 85.8923 55.1997L86.2938 54.2105C86.2938 54.2105 86.2456 54.1301 86.1493 54.0738L86.2215 53.8888C86.334 53.8888 86.4143 53.8888 86.4223 53.8888V53.736C86.4464 53.6395 86.1332 53.4626 85.7718 53.3097ZM78.4643 54.3311L78.1752 54.9745C78.1715 54.9857 78.1657 54.996 78.1581 55.0048C78.1505 55.0137 78.1412 55.0209 78.1307 55.0262C78.1202 55.0314 78.1089 55.0345 78.0972 55.0353C78.0855 55.0361 78.0738 55.0346 78.0627 55.0308L76.3603 54.5483C76.3202 54.5483 76.3041 54.5 76.3603 54.4518L76.7137 53.8325C76.7239 53.8127 76.7407 53.797 76.7612 53.7882C76.7817 53.7794 76.8047 53.778 76.8261 53.7842L78.4321 54.2427C78.4465 54.2497 78.4578 54.2618 78.4637 54.2767C78.4697 54.2915 78.4699 54.3081 78.4643 54.3231V54.3311ZM82.9291 50.6638C82.9291 50.6075 83.0255 50.5834 83.0978 50.6075C83.7326 50.7729 84.3409 51.0274 84.9046 51.3635C85.0009 51.4359 85.0973 51.838 84.9046 51.7576C84.2633 51.4552 83.6066 51.1867 82.9371 50.9533C82.8649 50.9533 82.8247 50.8729 82.8408 50.8166L82.9291 50.6638ZM80.1426 50.0124C80.8113 50.0169 81.4761 50.1143 82.1181 50.3019C82.1903 50.3019 82.2465 50.3823 82.2305 50.4386L82.1903 50.6236C82.1751 50.6512 82.1508 50.6728 82.1215 50.6845C82.0922 50.6962 82.0598 50.6975 82.0297 50.688C81.344 50.5252 80.6496 50.4016 79.9499 50.318C79.709 50.3019 80.0221 50.0285 80.1426 50.0124ZM83.2262 53.6717C82.2989 53.3113 81.3388 53.0419 80.3594 52.8674L79.709 52.7146C79.6708 52.7077 79.6347 52.6924 79.6031 52.67C79.5715 52.6475 79.5452 52.6184 79.5261 52.5846C79.5069 52.5509 79.4954 52.5134 79.4923 52.4747C79.4892 52.436 79.4947 52.3971 79.5082 52.3608L79.9499 51.074C79.9715 51.0152 80.0133 50.9661 80.0676 50.9352C80.122 50.9043 80.1855 50.8936 80.247 50.9051L80.8011 50.9935C81.8304 51.1973 82.8366 51.5045 83.8044 51.9104L84.3264 52.1195C84.3842 52.1442 84.4317 52.188 84.461 52.2437C84.4902 52.2994 84.4994 52.3634 84.487 52.4251L84.1979 53.7521C84.189 53.7898 84.1721 53.8252 84.1485 53.856C84.1248 53.8867 84.0949 53.912 84.0607 53.9303C84.0265 53.9485 83.9889 53.9593 83.9502 53.9619C83.9116 53.9644 83.8728 53.9587 83.8365 53.9451L83.2262 53.6717ZM85.7397 56.3096C85.7609 56.3177 85.7791 56.332 85.792 56.3506C85.8049 56.3693 85.8119 56.3914 85.812 56.4141V57.1299C85.8111 57.1402 85.808 57.1502 85.8029 57.1593C85.7978 57.1683 85.7909 57.1761 85.7825 57.1822C85.7741 57.1883 85.7645 57.1926 85.7544 57.1946C85.7442 57.1967 85.7338 57.1966 85.7237 57.1942L84.0293 56.7117C84.0074 56.7046 83.9885 56.6906 83.9754 56.6717C83.9624 56.6528 83.9559 56.6301 83.957 56.6071L84.0534 55.9074C84.0524 55.8975 84.054 55.8875 84.0582 55.8784C84.0624 55.8693 84.0689 55.8615 84.0771 55.8558C84.0852 55.85 84.0948 55.8466 84.1047 55.8458C84.1147 55.845 84.1247 55.8468 84.1337 55.8511L85.7397 56.3096Z" fill="#6C6C6C"/>
<path d="M89.5009 57.6892C89.3368 58.0044 89.0686 58.2528 88.7421 58.3921C88.4155 58.5314 88.0508 58.553 87.7102 58.4532L74.0587 54.5928C73.7141 54.4969 73.4135 54.284 73.2084 53.9906C73.0033 53.6972 72.9064 53.3415 72.9344 52.9844C78.6268 53.8727 84.1917 55.4442 89.509 57.665L89.5009 57.6892Z" fill="#6C6C6C"/>
</svg>
